# xmcd
#
# Track frame offsets:
#	150
#	15679
#	31352
#	44257
#	58571
#	71135
#	84324
#	101088
#	114310
#	126622
#	141239
#	155192
#	167721
#	179733
#	194230
#
# Disc length: 2829 seconds
#
# Revision: 1
# Processed by: cddbd v1.5.2PL0 Copyright (c) Steve Scherf et al.
# Submitted via: audiograbber 1.83.01
#
DISCID=e40b0b0f
DTITLE=Sam Hunt - Pines (Acoustic)
DYEAR=2015
DGENRE=Country
TTITLE0=Raised on It (Acoustic)
TTITLE1=Cop Car (Acoustic)
TTITLE2=Ex to See (Acoustic)
TTITLE3=House Party (Acoustic)
TTITLE4=Leave the Night On (Acoustic)
TTITLE5=We Are Tonight (Acoustic)
TTITLE6=Make You Miss Me (Acoustic)
TTITLE7=I Met a Girl (Acoustic)
TTITLE8=Bottle It Up (Acoustic)
TTITLE9=Saturday Night (Acoustic)
TTITLE10=Speakers (Acoustic)
TTITLE11=Vacation (Acoustic)
TTITLE12=Vandalizer (Acoustic)
TTITLE13=Goodbye (Acoustic)
TTITLE14=Come Over (Acoustic)
EXTD=
EXTT0=
EXTT1=
EXTT2=
EXTT3=
EXTT4=
EXTT5=
EXTT6=
EXTT7=
EXTT8=
EXTT9=
EXTT10=
EXTT11=
EXTT12=
EXTT13=
EXTT14=
PLAYORDER=
